<?xml version="1.0" encoding="iso-8859-1"?>
<!-- Generator: Adobe Illustrator 18.0.0, SVG Export Plug-In . SVG Version: 6.00 Build 0)  -->
<!DOCTYPE svg PUBLIC "-//W3C//DTD SVG 1.1//EN" "http://www.w3.org/Graphics/SVG/1.1/DTD/svg11.dtd">
<svg version="1.1" id="Capa_1" xmlns="http://www.w3.org/2000/svg" xmlns:xlink="http://www.w3.org/1999/xlink" x="100px" y="100px"
	 viewBox="0 0 60.001 60.001" style="enable-background:new 0 0 60.001 60.001;" xml:space="preserve">
<g>
	<g>
		<path style="fill:#FF3F29;" d="M1.952,56.319c-0.103,0-0.206-0.016-0.31-0.049C1.322,56.165,1,56.058,0.676,55.947
			c-0.522-0.18-0.801-0.748-0.622-1.271c0.18-0.522,0.747-0.799,1.271-0.622c0.314,0.107,0.626,0.213,0.937,0.313
			c0.524,0.171,0.813,0.735,0.642,1.261C2.765,56.05,2.373,56.319,1.952,56.319z"/>
		<path style="fill:#FF3F29;" d="M17.86,58.89c-0.529,0-0.97-0.42-1-0.95c0-0.02,0-0.04,0-0.05c0-0.54,0.421-0.979,0.96-1
			c0.7-0.04,1.33-0.09,1.931-0.17c0.55-0.06,1.05,0.33,1.12,0.87c0.069,0.55-0.32,1.05-0.86,1.12c-0.69,0.08-1.39,0.14-2.1,0.18
			C17.9,58.89,17.88,58.89,17.86,58.89z M13.82,58.82c-0.029,0-0.05,0-0.079,0c-0.671-0.05-1.36-0.119-2.061-0.21
			c-0.5-0.069-0.88-0.489-0.88-0.989c0-0.051,0-0.09,0.01-0.13c0.07-0.54,0.57-0.931,1.12-0.87l0.01,0.05l0.011-0.05
			c0.64,0.09,1.3,0.149,1.939,0.199c0.55,0.04,0.96,0.53,0.92,1.08C14.77,58.42,14.34,58.82,13.82,58.82z M7.81,57.92
			c-0.069,0-0.14-0.01-0.21-0.021c-0.62-0.14-1.28-0.29-1.939-0.46l-0.07-0.01c-0.26-0.07-0.47-0.24-0.61-0.47
			c-0.14-0.23-0.17-0.5-0.109-0.75c0.14-0.53,0.689-0.86,1.22-0.72c0.63,0.159,1.28,0.31,1.93,0.449C8.281,56,8.51,56.16,8.65,56.38
			c0.15,0.22,0.19,0.49,0.141,0.75C8.69,57.59,8.281,57.92,7.81,57.92z M23.83,57.84c-0.44,0-0.82-0.271-0.95-0.68
			c-0.04-0.11-0.05-0.221-0.05-0.32c0-0.43,0.27-0.81,0.68-0.95c0.61-0.2,1.21-0.43,1.771-0.7c0.489-0.229,1.109,0,1.329,0.48
			c0.24,0.5,0.021,1.09-0.479,1.33c-0.6,0.28-1.25,0.54-1.93,0.77l0,0L24.14,57.79C24.04,57.83,23.94,57.84,23.83,57.84z
			 M29.08,54.88c-0.29,0-0.561-0.12-0.74-0.33c-0.17-0.19-0.26-0.43-0.26-0.67c0-0.29,0.12-0.561,0.33-0.74
			c0.46-0.42,0.89-0.87,1.279-1.35c0.33-0.42,0.99-0.49,1.4-0.15c0.21,0.16,0.34,0.4,0.37,0.67c0.03,0.26-0.05,0.521-0.21,0.73
			c-0.431,0.529-0.9,1.029-1.41,1.5l0,0l-0.09,0.09C29.57,54.79,29.33,54.88,29.08,54.88z M32.46,49.91L32.46,49.91
			c-0.12,0-0.24-0.021-0.351-0.061c-0.39-0.149-0.64-0.51-0.649-0.93c0-0.12,0.02-0.25,0.07-0.36c0.22-0.58,0.399-1.18,0.55-1.81
			c0.13-0.53,0.67-0.87,1.2-0.74c0.539,0.12,0.869,0.66,0.75,1.2c-0.171,0.71-0.381,1.399-0.631,2.06
			C33.25,49.65,32.88,49.91,32.46,49.91z M33.52,43.96h-0.01c-0.55,0-0.979-0.44-0.99-0.98v-0.02c0-0.05,0-0.09,0-0.13
			s0-0.09,0-0.13c0-0.54-0.02-1.11-0.06-1.681c-0.021-0.27,0.06-0.529,0.229-0.729c0.181-0.2,0.42-0.33,0.69-0.351
			c0.57-0.04,1.03,0.38,1.07,0.931c0.05,0.62,0.069,1.229,0.069,1.83c0,0.09,0,0.189,0,0.279C34.51,43.52,34.06,43.96,33.52,43.96z
			 M32.871,37.94c-0.46,0-0.86-0.319-0.971-0.75l-0.01-0.04c-0.01-0.02-0.01-0.04-0.01-0.06c-0.14-0.63-0.29-1.26-0.46-1.86
			c-0.14-0.529,0.17-1.08,0.71-1.229c0.51-0.141,1.08,0.189,1.22,0.71c0.19,0.67,0.351,1.35,0.5,2.02l0.01,0.061h-0.01
			c0.01,0.05,0.021,0.09,0.021,0.14c0,0.47-0.33,0.88-0.79,0.98C33.01,37.93,32.94,37.94,32.871,37.94z M31.15,32.12
			c-0.42,0-0.8-0.271-0.939-0.66c-0.15-0.38-0.28-0.73-0.42-1.09c-0.11-0.271-0.21-0.53-0.311-0.79
			c-0.1-0.25-0.09-0.521,0.021-0.761c0.109-0.25,0.31-0.43,0.56-0.529c0.5-0.19,1.101,0.08,1.29,0.58c0.09,0.25,0.19,0.5,0.29,0.76
			c0.15,0.35,0.29,0.729,0.44,1.14c0.04,0.11,0.06,0.221,0.069,0.34c0,0.421-0.27,0.801-0.659,0.94
			C31.38,32.1,31.26,32.12,31.15,32.12z M29.121,26.39L29.121,26.39c-0.44,0-0.84-0.3-0.96-0.72c-0.2-0.7-0.38-1.38-0.53-2.01
			c-0.12-0.54,0.21-1.08,0.75-1.2c0.53-0.13,1.08,0.21,1.2,0.74c0.14,0.59,0.31,1.22,0.5,1.909c0.029,0.091,0.04,0.181,0.04,0.271
			c0.01,0.45-0.29,0.84-0.721,0.97C29.31,26.38,29.22,26.39,29.121,26.39z M27.9,20.44c-0.51,0-0.93-0.38-0.989-0.88
			c-0.08-0.71-0.13-1.41-0.16-2.1c-0.021-0.55,0.41-1.01,0.96-1.03c0.55-0.06,1.02,0.41,1.04,0.96c0.02,0.61,0.069,1.25,0.149,1.94
			l0,0c0,0.029,0,0.069,0,0.1c0.011,0.521-0.369,0.95-0.88,1.01C27.98,20.44,27.94,20.44,27.9,20.44z M27.97,14.39
			c-0.06,0-0.11-0.01-0.16-0.01c-0.479-0.08-0.84-0.51-0.84-0.99c0-0.05,0-0.109,0.01-0.16c0.12-0.729,0.271-1.43,0.45-2.09
			c0.15-0.52,0.72-0.84,1.23-0.689c0.54,0.149,0.85,0.699,0.699,1.229c-0.17,0.58-0.3,1.19-0.39,1.8l-0.01,0.061
			C28.88,14.031,28.46,14.39,27.97,14.39z M30.01,8.72c-0.19,0-0.37-0.06-0.53-0.16c-0.29-0.18-0.46-0.5-0.46-0.84
			c0-0.189,0.05-0.37,0.15-0.54c0.39-0.61,0.83-1.2,1.31-1.74C30.83,5.04,31.5,5,31.9,5.35c0.41,0.37,0.44,1,0.08,1.42
			c-0.41,0.46-0.79,0.96-1.12,1.48C30.68,8.54,30.36,8.72,30.01,8.72z M58.05,4.68c-0.1,0-0.21-0.01-0.31-0.05
			c-0.021,0-0.04-0.01-0.07-0.021c-0.4-0.13-0.68-0.51-0.69-0.939c0-0.11,0.021-0.21,0.051-0.32c0.17-0.51,0.739-0.8,1.26-0.64
			c0.029,0.01,0.06,0.02,0.08,0.03c0.25,0.079,0.449,0.25,0.569,0.489C59.06,3.47,59.09,3.74,59,3.99
			C58.871,4.41,58.491,4.68,58.05,4.68z M34.35,4.55c-0.35,0-0.68-0.19-0.859-0.49C33.4,3.91,33.35,3.74,33.35,3.56
			c0-0.359,0.19-0.689,0.5-0.87c0.61-0.35,1.26-0.68,1.931-0.96c0.5-0.199,1.1,0.051,1.31,0.54c0.21,0.511-0.03,1.101-0.54,1.311
			c-0.59,0.239-1.16,0.529-1.69,0.84C34.71,4.51,34.531,4.55,34.35,4.55z M54.1,3.531c-0.09,0-0.17-0.011-0.25-0.021
			c-0.7-0.18-1.33-0.32-1.93-0.45c-0.47-0.1-0.8-0.51-0.8-0.979c0-0.07,0.01-0.141,0.02-0.21c0.11-0.521,0.65-0.88,1.19-0.771
			c0.649,0.141,1.33,0.3,2.01,0.47c0.53,0.131,0.86,0.671,0.72,1.211C54.951,3.22,54.55,3.531,54.1,3.531z M40.05,2.55
			c-0.49,0-0.9-0.35-0.98-0.83c-0.01-0.06-0.02-0.12-0.02-0.18c0-0.48,0.35-0.891,0.83-0.971c0.66-0.119,1.36-0.21,2.1-0.27
			c0.561-0.05,1.03,0.37,1.08,0.91c0.04,0.55-0.37,1.04-0.92,1.08c-0.649,0.06-1.3,0.14-1.92,0.25C40.161,2.55,40.1,2.55,40.05,2.55
			z M48.121,2.43c-0.03,0-0.07,0-0.11-0.01c-0.66-0.07-1.32-0.13-1.96-0.17c-0.53-0.021-0.95-0.47-0.94-1c0-0.021,0-0.03,0-0.05
			c0.03-0.551,0.511-0.96,1.051-0.94c0.649,0.03,1.35,0.09,2.08,0.17c0.26,0.03,0.5,0.16,0.659,0.37c0.17,0.21,0.25,0.47,0.221,0.74
			C49.06,2.05,48.63,2.43,48.121,2.43z"/>
		<path style="fill:#FF3F29;" d="M59,5c-0.107,0-0.217-0.018-0.324-0.054c-0.314-0.107-0.627-0.213-0.938-0.313
			c-0.524-0.171-0.813-0.735-0.642-1.261c0.171-0.524,0.73-0.813,1.261-0.642c0.32,0.104,0.643,0.212,0.967,0.323
			c0.522,0.18,0.801,0.748,0.622,1.271C59.804,4.739,59.416,5,59,5z"/>
	</g>
	<path style="fill:#FF3F29;" d="M5,60c-0.416,0-0.804-0.261-0.946-0.676c-4.449-12.989-3.676-23.606,2.123-29.129
		c5.272-5.02,14.116-5.421,24.909-1.124c9.933,3.953,17.922,3.733,22.496-0.624c5.158-4.911,5.694-14.798,1.472-27.123
		c-0.179-0.522,0.1-1.091,0.622-1.271c0.522-0.177,1.091,0.1,1.271,0.622c4.486,13.097,3.763,23.747-1.984,29.22
		c-5.172,4.928-13.913,5.294-24.616,1.033C20.326,26.94,12.23,27.195,7.557,31.644c-5.209,4.961-5.796,14.813-1.61,27.032
		c0.179,0.522-0.1,1.091-0.622,1.271C5.217,59.983,5.108,60,5,60z"/>
	<path style="fill:#FD7033;" d="M24.816,57.473c-0.256,0-0.512-0.098-0.707-0.293L3.08,36.152c-0.391-0.391-0.391-1.023,0-1.414
		s1.023-0.391,1.414,0l21.028,21.028c0.391,0.391,0.391,1.023,0,1.414C25.328,57.375,25.072,57.473,24.816,57.473z"/>
	<path style="fill:#FBAB3F;" d="M14.9,58.87c-0.256,0-0.512-0.098-0.707-0.293L1.504,45.889c-0.391-0.391-0.391-1.023,0-1.414
		s1.023-0.391,1.414,0l12.688,12.688c0.391,0.391,0.391,1.023,0,1.414C15.412,58.773,15.156,58.87,14.9,58.87z"/>
	<path style="fill:#FD7033;" d="M58.86,15.889c-0.256,0-0.512-0.098-0.707-0.293L44.488,1.931c-0.391-0.391-0.391-1.023,0-1.414
		s1.023-0.391,1.414,0l13.665,13.665c0.391,0.391,0.391,1.023,0,1.414C59.372,15.791,59.116,15.889,58.86,15.889z"/>
	<path style="fill:#FBAB3F;" d="M57.327,25.669c-0.256,0-0.512-0.098-0.707-0.293L34.879,3.637c-0.391-0.391-0.391-1.023,0-1.414
		s1.023-0.391,1.414,0l21.74,21.739c0.391,0.391,0.391,1.023,0,1.414C57.838,25.572,57.582,25.669,57.327,25.669z"/>
	<path style="fill:#FD7033;" d="M52.133,31.79c-0.256,0-0.512-0.098-0.707-0.293L28.974,9.044c-0.391-0.391-0.391-1.023,0-1.414
		c0.391-0.391,1.023-0.391,1.414,0L52.84,30.083c0.391,0.391,0.391,1.023,0,1.414C52.645,31.693,52.389,31.79,52.133,31.79z"/>
	<path style="fill:#FBAB3F;" d="M42.896,33.866c-0.256,0-0.512-0.098-0.707-0.293L27.086,18.471c-0.391-0.391-0.391-1.023,0-1.414
		s1.023-0.391,1.414,0l15.103,15.103c0.391,0.391,0.391,1.023,0,1.414C43.408,33.769,43.152,33.866,42.896,33.866z"/>
	<path style="fill:#FD7033;" d="M33.516,43.545c-0.256,0-0.512-0.098-0.707-0.293L17.4,27.843c-0.391-0.391-0.391-1.023,0-1.414
		s1.023-0.391,1.414,0l15.409,15.409c0.391,0.391,0.391,1.023,0,1.414C34.028,43.448,33.772,43.545,33.516,43.545z"/>
	<path style="fill:#FBAB3F;" d="M31.136,52.48c-0.256,0-0.512-0.098-0.707-0.293l-22.16-22.16c-0.391-0.391-0.391-1.023,0-1.414
		s1.023-0.391,1.414,0l22.16,22.16c0.391,0.391,0.391,1.023,0,1.414C31.648,52.382,31.392,52.48,31.136,52.48z"/>
</g>
<g>
</g>
<g>
</g>
<g>
</g>
<g>
</g>
<g>
</g>
<g>
</g>
<g>
</g>
<g>
</g>
<g>
</g>
<g>
</g>
<g>
</g>
<g>
</g>
<g>
</g>
<g>
</g>
<g>
</g>
</svg>
